<svg
  xmlns="http://www.w3.org/2000/svg"
  width="36"
  height="36"
  viewBox="0 0 36 36"
  fill="none"
>
  <rect width="36" height="36" rx="18" fill="white" />
  <g clip-path="url(#clip0_4_3630)">
	<path
	  d="M23.2496 12.7584C22.9246 12.4334 22.3996 12.4334 22.0746 12.7584L17.9996 16.8251L13.9246 12.7501C13.5996 12.4251 13.0746 12.4251 12.7496 12.7501C12.4246 13.0751 12.4246 13.6001 12.7496 13.9251L16.8246 18.0001L12.7496 22.0751C12.4246 22.4001 12.4246 22.9251 12.7496 23.2501C13.0746 23.5751 13.5996 23.5751 13.9246 23.2501L17.9996 19.1751L22.0746 23.2501C22.3996 23.5751 22.9246 23.5751 23.2496 23.2501C23.5746 22.9251 23.5746 22.4001 23.2496 22.0751L19.1746 18.0001L23.2496 13.9251C23.5663 13.6084 23.5663 13.0751 23.2496 12.7584Z"
	  fill="red"
	  stroke="red"
	/>
  </g>
  <defs>
	<clipPath id="clip0_4_3630">
	  <rect
		width="20"
		height="20"
		fill="white"
		transform="translate(8 8)"
	  />
	</clipPath>
  </defs>
</svg>