<svg width="72" height="72" viewBox="0 0 72 72" fill="none" xmlns="http://www.w3.org/2000/svg">
<g filter="url(#filter0_d)">
<path d="M53.1235 35.3988C53.2903 35.495 53.2903 35.7357 53.1235 35.8319L26.6738 51.0881C26.5072 51.1843 26.2989 51.064 26.2989 50.8716L26.2989 20.3592C26.2989 20.1668 26.5072 20.0465 26.6738 20.1426L53.1235 35.3988Z" stroke="white" stroke-width="1.5"/>
<path d="M36 64.5C20.2599 64.5 7.5 51.7401 7.5 36H4.5C4.5 53.397 18.603 67.5 36 67.5V64.5ZM64.5 36C64.5 51.7401 51.7401 64.5 36 64.5V67.5C53.397 67.5 67.5 53.397 67.5 36H64.5ZM36 7.5C51.7401 7.5 64.5 20.2599 64.5 36H67.5C67.5 18.603 53.397 4.5 36 4.5V7.5ZM36 4.5C18.603 4.5 4.5 18.603 4.5 36H7.5C7.5 20.2599 20.2599 7.5 36 7.5V4.5Z" fill="white"/>
</g>
<defs>
<filter id="filter0_d" x="0" y="0" width="72" height="72" filterUnits="userSpaceOnUse" color-interpolation-filters="sRGB">
<feFlood flood-opacity="0" result="BackgroundImageFix"/>
<feColorMatrix in="SourceAlpha" type="matrix" values="0 0 0 0 0 0 0 0 0 0 0 0 0 0 0 0 0 0 127 0"/>
<feOffset/>
<feGaussianBlur stdDeviation="3"/>
<feColorMatrix type="matrix" values="0 0 0 0 0 0 0 0 0 0 0 0 0 0 0 0 0 0 1 0"/>
<feBlend mode="normal" in2="BackgroundImageFix" result="effect1_dropShadow"/>
<feBlend mode="normal" in="SourceGraphic" in2="effect1_dropShadow" result="shape"/>
</filter>
</defs>
</svg>
